<svg width="2599" height="2598" xmlns="http://www.w3.org/2000/svg" xmlns:xlink="http://www.w3.org/1999/xlink" xml:space="preserve" overflow="hidden"><g transform="translate(1 0)"><path d="M275.686 1440 1157.77 1440 1157.77 1722.37 1299 1580.74 1440.23 1722.37 1440.23 1440 1477.98 1440 1576.21 1538.22C1667.03 1629.06 1814.29 1629.06 1905.11 1538.22L2003.34 1440 2322.33 1440C2474.57 1440 2598 1563.77 2598 1716.45L2598 2321.55C2598 2474.23 2474.57 2598 2322.33 2598L275.686 2598C123.429 2598 0 2474.23 0 2321.55L0 1716.45C0 1563.77 123.429 1440 275.686 1440Z" fill="#282E38" fill-rule="evenodd"/><path d="M290.16 0.963958 437.333 0.963958 437.333 323.714 578.965 182.149 720.598 323.714 720.598 0.963958 867.775 0.963958C1028.04 0.963958 1157.97 130.827 1157.97 291.02L1157.97 401.191 962.608 596.455C871.779 687.242 871.779 834.436 962.608 925.223L1139.21 1101.75 1135.16 1114.82C1091.1 1218.92 987.971 1291.96 867.775 1291.96L290.16 1291.96C129.89 1291.96-0.0346569 1162.11-0.0346569 1001.91L-0.0346569 291.02C-0.0346569 130.827 129.89 0.963958 290.16 0.963958Z" fill="#038DE8" fill-rule="evenodd"/><path d="M1070.12 818.264C1037.92 786.064 1037.92 733.859 1070.12 701.659L1682.66 89.1132C1714.86 56.914 1767.07 56.914 1799.27 89.1132L2411.82 701.659C2444.01 733.859 2444.01 786.064 2411.82 818.264L1799.27 1430.81C1767.07 1463.01 1714.86 1463.01 1682.66 1430.81Z" fill="#FD4051" fill-rule="evenodd"/><path d="M1267.59 1908C1287.72 1908 1305.6 1912.88 1321.2 1922.68 1336.78 1932.47 1348.82 1946.98 1357.28 1966.22 1365.76 1985.48 1370 2008.4 1370 2035L1370 2035 1366.82 1997.86C1364.7 1986.4 1361.52 1975.85 1357.28 1966.22 1348.82 1946.98 1336.78 1932.47 1321.2 1922.68 1305.6 1912.88 1287.72 1908 1267.59 1908 1253.28 1908 1240.06 1910.68 1227.96 1916.06 1215.85 1921.43 1205.42 1929.27 1196.68 1939.54 1187.94 1949.82 1180.98 1963.17 1175.78 1979.57 1173.19 1987.77 1171.25 1996.49 1169.95 2005.73L1168 2035 1168 2035C1168 2014.44 1170.6 1995.98 1175.78 1979.57 1180.98 1963.17 1187.94 1949.82 1196.68 1939.54 1205.42 1929.27 1215.85 1921.43 1227.96 1916.05 1240.06 1910.68 1253.28 1908 1267.59 1908Z" fill="#FFFFFF" fill-rule="evenodd"/><path d="M1370 2035 1370 2035C1370 2064.05 1365.39 2088.35 1356.16 2107.94 1346.94 2127.55 1334.66 2141.94 1319.34 2151.16 1304.02 2160.39 1287.12 2165 1268.61 2165 1254.17 2165 1241.03 2162.33 1229.13 2157.04 1217.24 2151.71 1206.68 2143.69 1197.44 2132.89 1188.19 2122.11 1180.98 2108.34 1175.78 2091.57 1170.6 2074.8 1168 2055.95 1168 2035L1168 2035 1169.95 2064.86C1171.25 2074.28 1173.19 2083.19 1175.78 2091.57 1180.98 2108.34 1188.19 2122.11 1197.44 2132.88 1206.68 2143.69 1217.24 2151.71 1229.13 2157.04 1241.03 2162.33 1254.17 2165 1268.61 2165 1287.12 2165 1304.02 2160.39 1319.34 2151.16 1334.66 2141.94 1346.94 2127.55 1356.16 2107.94 1360.78 2098.15 1364.24 2087.17 1366.54 2075.02L1370 2035Z" fill="#FFFFFF" fill-rule="evenodd"/><path d="M504.979 1837C528.454 1837 548.906 1839.98 566.343 1845.9 583.781 1851.85 598.316 1859.79 609.938 1869.73 621.558 1879.69 630.089 1890.17 635.526 1901.25 640.951 1912.32 643.68 1923.13 643.68 1933.73 643.68 1944.08 640.007 1953.4 632.668 1961.73 625.328 1970.08 616.032 1974.23 604.766 1974.23 594.612 1974.23 586.951 1971.74 581.768 1966.77 576.586 1961.8 571.337 1954.34 566.032 1944.44 559.27 1930.37 551.509 1919.68 542.712 1912.36 533.915 1905.04 519.625 1901.39 499.819 1901.39 481.513 1901.39 466.945 1905.26 456.124 1913.01 445.304 1920.77 439.888 1929.81 439.888 1940.14 439.888 1946.55 441.645 1952.11 445.159 1956.79 448.674 1961.48 453.744 1965.64 460.372 1969.27 467 1972.89 473.819 1975.77 480.812 1977.88 487.808 1980.02 500.107 1983.29 517.701 1987.74 538.33 1992.58 557.38 1998.03 574.839 2004.13 592.31 2010.21 607.302 2017.7 619.801 2026.59 632.313 2035.46 642.133 2046.84 649.286 2060.68 656.431 2074.54 660 2091.27 660 2110.87 660 2134.49 653.873 2155.77 641.635 2174.75 629.376 2193.74 611.627 2208.54 588.362 2219.11 565.109 2229.7 537.64 2235 505.946 2235 467.968 2235 436.608 2227.79 411.863 2213.36 394.114 2202.86 379.703 2188.87 368.614 2171.32 357.538 2153.81 352 2136.56 352 2119.58 352 2108.98 355.692 2099.9 363.075 2092.28 370.459 2084.67 379.802 2080.87 391.1 2080.87 400.475 2080.87 408.36 2083.83 414.744 2089.72 421.127 2095.65 426.397 2103.95 430.546 2114.63 435.195 2126.25 440.11 2135.8 445.281 2143.31 450.452 2150.78 457.637 2156.92 466.834 2161.66 476.02 2166.43 488.386 2168.81 503.911 2168.81 525.228 2168.81 542.323 2164 555.223 2154.36 568.111 2144.75 574.561 2132.97 574.561 2119.07 574.561 2108.07 571.171 2099.09 564.375 2092.13 557.58 2085.19 548.45 2079.76 536.973 2075.86 525.507 2071.94 509.726 2067.69 489.654 2063.09 462.307 2056.68 439.343 2049.15 420.76 2040.49 402.177 2031.83 387.264 2019.79 376.021 2004.37 364.767 1988.95 359.138 1969.83 359.138 1947.02 359.138 1925.29 365.055 1905.99 376.888 1889.13 388.71 1872.25 405.669 1859.34 427.766 1850.42 449.853 1841.47 475.597 1837 504.979 1837Z" fill="#FFFFFF" fill-rule="evenodd"/><path d="M1267.09 1837C1306.77 1837 1341 1845.16 1369.76 1861.45 1398.52 1877.77 1420.26 1900.87 1434.95 1930.77 1449.65 1960.68 1457 1995.58 1457 2035.48 1457 2064.91 1452.98 2091.8 1444.94 2116.12 1436.92 2140.46 1424.82 2161.62 1408.62 2179.58 1392.44 2197.57 1372.61 2211.3 1349.13 2220.78 1325.65 2230.26 1298.83 2235 1268.62 2235 1238.55 2235 1211.66 2230.15 1187.92 2220.45 1164.2 2210.74 1144.34 2196.99 1128.33 2179.2 1112.32 2161.4 1100.28 2140.1 1092.16 2115.28 1084.05 2090.46 1080 2063.68 1080 2034.97 1080 2005.58 1084.22 1978.55 1092.67 1953.94 1101.12 1929.34 1113.44 1908.31 1129.61 1890.84 1145.79 1873.38 1165.45 1860.05 1188.59 1850.84 1211.75 1841.6 1237.9 1837 1267.09 1837ZM1267.09 1907.64C1252.77 1907.64 1239.54 1910.33 1227.43 1915.72 1215.31 1921.1 1204.87 1928.96 1196.12 1939.26 1187.37 1949.57 1180.41 1962.95 1175.21 1979.39 1170.02 1995.85 1167.42 2014.36 1167.42 2034.97L1167.42 2034.97 1167.42 2034.97C1167.42 2055.83 1170.02 2074.6 1175.21 2091.29 1180.41 2107.98 1187.62 2121.69 1196.88 2132.41 1206.13 2143.17 1216.7 2151.16 1228.6 2156.46 1240.5 2161.73 1253.66 2164.38 1268.11 2164.38 1286.63 2164.38 1303.55 2159.79 1318.88 2150.6 1334.21 2141.43 1346.5 2127.1 1355.73 2107.58 1364.97 2088.08 1369.58 2063.89 1369.58 2034.97L1369.58 2034.97 1369.58 2034.97C1369.58 2008.31 1365.33 1985.32 1356.85 1966.02 1348.38 1946.72 1336.34 1932.17 1320.74 1922.36 1305.13 1912.53 1287.24 1907.64 1267.09 1907.64Z" fill="#FFFFFF" fill-rule="evenodd"/><path d="M1710.46 1837C1741.54 1837 1769.3 1843.27 1793.79 1855.81 1818.29 1868.33 1837.1 1883.89 1850.25 1902.52 1863.4 1921.13 1869.97 1938.84 1869.97 1955.7 1869.97 1965.72 1866.42 1974.59 1859.33 1982.29 1852.23 1990.02 1843.5 1993.86 1833.15 1993.86 1821.99 1993.86 1813.66 1991.26 1808.15 1986.03 1802.67 1980.82 1796.79 1972.28 1790.51 1960.44 1781.01 1942.57 1769.99 1929.3 1757.45 1920.64 1744.88 1911.96 1729.39 1907.64 1710.98 1907.64 1681.67 1907.64 1658.27 1918.9 1640.71 1941.44 1623.18 1964.02 1614.41 1996.54 1614.41 2039.07 1614.41 2067.76 1618.3 2091.33 1626.1 2109.8 1633.86 2128.28 1644.77 2141.99 1658.8 2150.96 1672.81 2159.9 1689.35 2164.38 1708.42 2164.38 1729.1 2164.38 1746.52 2159.28 1760.63 2149.14 1774.74 2138.97 1785.63 2123.41 1793.25 2102.44 1796.32 2093.07 1800.6 2084.79 1806.07 2077.62 1811.56 2070.45 1820.41 2066.87 1832.63 2066.87 1843.1 2066.87 1852.12 2070.56 1859.67 2077.96 1867.22 2085.34 1871 2094.38 1871 2105.11 1871 2117.57 1867.93 2131.08 1861.79 2145.66 1855.63 2160.21 1846 2174.44 1832.97 2188.31 1819.93 2202.17 1803.29 2213.41 1783.05 2222.04 1762.82 2230.68 1739.32 2235 1712.5 2235 1692.21 2235 1673.81 2233.09 1657.33 2229.28 1640.85 2225.46 1625.74 2219.44 1612.01 2211.18 1598.28 2202.95 1585.33 2190.55 1573.15 2173.97 1563.88 2165.27 1555.66 2153.4 1548.43 2138.34 1541.24 2123.27 1535.87 2107.31 1532.3 2090.46 1528.76 2073.64 1527 2055.67 1527 2036.57 1527 2005.66 1531.47 1977.97 1540.42 1953.56 1549.39 1929.14 1562.28 1908.17 1579.09 1890.7 1595.91 1873.21 1615.65 1859.9 1638.29 1850.73 1660.94 1841.58 1685.01 1837 1710.46 1837Z" fill="#FFFFFF" fill-rule="evenodd"/><path d="M1983.77 1837C1996.75 1837 2007.31 1841.36 2015.41 1850.06 2023.52 1858.77 2027.6 1871.49 2027.6 1888.25L2027.6 2014.49 2167.34 1860.63C2174.76 1852.84 2181.29 1846.96 2186.87 1842.98 2192.46 1839 2200.03 1837 2209.54 1837 2221.93 1837 2232.03 1840.71 2239.85 1848.12 2247.67 1855.56 2251.56 1864.57 2251.56 1875.19 2251.56 1887.74 2245.28 1900.01 2232.72 1912L2142.14 1996.36 2244.05 2142.77C2253.92 2154.92 2260.86 2165.27 2264.91 2173.84 2268.98 2182.41 2271 2190.73 2271 2198.85 2271 2208.65 2267.17 2217.11 2259.51 2224.27 2251.87 2231.42 2241.67 2235 2228.95 2235 2217.31 2235 2207.77 2232.48 2200.35 2227.43 2192.93 2222.38 2186.69 2215.79 2181.68 2207.62 2176.68 2199.46 2172.42 2192.35 2168.9 2186.37L2083.37 2051.77 2027.6 2108.29 2027.6 2183.54C2027.6 2200.51 2023.5 2213.32 2015.32 2222 2007.13 2230.66 1996.61 2235 1983.77 2235 1976.33 2235 1969.23 2233.07 1962.47 2229.19 1955.69 2225.34 1950.32 2219.86 1946.39 2212.84 1943.89 2207.8 1942.35 2201.95 1941.82 2195.29 1941.27 2188.62 1941 2179.16 1941 2166.9L1941 1888.23C1941 1871.54 1944.82 1858.83 1952.49 1850.11 1960.14 1841.36 1970.59 1837 1983.77 1837Z" fill="#FFFFFF" fill-rule="evenodd"/><path d="M749.538 1844 990.678 1844C1005.18 1844 1016.18 1847.4 1023.71 1854.2 1031.23 1861.03 1035 1869.8 1035 1880.57 1035 1891.48 1031.21 1900.26 1023.65 1906.91 1016.1 1913.55 1005.1 1916.88 990.678 1916.88L913.363 1916.88 913.363 2183.59C913.363 2200.59 909.383 2213.39 901.432 2222.04 893.465 2230.69 883.104 2235 870.361 2235 857.523 2235 847.101 2230.67 839.105 2222 831.108 2213.33 827.107 2200.53 827.107 2183.59L827.107 1916.88 749.538 1916.88C735.218 1916.88 724.38 1913.55 717.023 1906.93 709.675 1900.28 706 1891.5 706 1880.57 706 1869.3 709.831 1860.38 717.493 1853.82 725.147 1847.27 735.829 1844 749.538 1844Z" fill="#FFFFFF" fill-rule="evenodd"/></g></svg>