<svg width="756" height="756" xmlns="http://www.w3.org/2000/svg" xmlns:xlink="http://www.w3.org/1999/xlink" overflow="hidden"><g><rect x="0" y="0" width="756" height="756" fill="#FFFFFF" fill-opacity="0"/><path d="M238.198 68.5273 220.219 111.268C216.287 120.828 223.302 131.322 233.64 131.346L429.484 131.346C445.459 131.348 449.761 109.334 434.96 103.322L300.21 48.2402C271.144 37.7012 248.699 43.8867 238.198 68.5273Z" fill="#333333"/><path d="M610.619 176.334C602.667 176.422 596.259 182.877 596.231 190.83L596.231 424.254C596.231 432.289 602.743 438.801 610.777 438.801 616.697 438.801 622.027 435.215 624.255 429.729L692.436 262.875C702.869 237.35 690.49 207.711 664.948 197.271L616.31 177.408C614.504 176.674 612.568 176.309 610.619 176.336Z" fill="#333333"/><path d="M144.844 318.387C139.115 318.57 134.028 322.102 131.852 327.404L63.5645 494.367C53.1306 519.893 65.51 549.424 91.0515 559.863L139.798 579.727C147.228 582.781 155.728 579.234 158.783 571.805 159.501 570.061 159.872 568.193 159.876 566.305L159.876 332.881C159.852 324.848 153.32 318.354 145.286 318.377 145.139 318.377 144.991 318.381 144.844 318.387Z" fill="#333333"/><path d="M325.12 625.896C317.127 626.709 311.308 633.85 312.122 641.842 312.665 647.17 316.09 651.768 321.04 653.812L455.897 709.002C481.43 719.436 510.96 706.93 521.394 681.406L535.889 645.867C538.885 638.414 535.27 629.941 527.816 626.945 526.081 626.248 524.229 625.891 522.36 625.896L326.623 625.896C326.122 625.871 325.62 625.871 325.12 625.896Z" fill="#333333"/><path d="M181.028 102.248C153.443 102.248 130.779 124.912 130.779 152.498L130.779 604.744C130.779 632.328 153.443 654.994 181.028 654.994L575.079 654.994C602.665 654.994 625.329 632.328 625.329 604.744L625.329 152.498C625.329 124.912 602.665 102.248 575.079 102.248Z" fill="#EFEBE9"/><path d="M247.169 585.629 247.169 538.604C247.197 530.609 253.67 524.135 261.664 524.109L305.364 524.109C321.229 524.109 334.461 537.342 334.461 553.207L334.461 585.629Z" fill="#FF1744"/><path d="M305.392 524.055C321.257 524.055 334.482 537.281 334.482 553.146L307.751 553.146C299.716 553.174 293.204 559.713 293.234 567.748L293.234 585.629 247.183 585.629 247.183 538.658C247.154 530.621 253.664 524.084 261.7 524.055Z" fill="#E5173A"/><path d="M202.073 160.443C194.038 160.832 187.839 167.66 188.228 175.695 188.616 183.727 195.438 189.922 203.469 189.541L247.169 189.541C255.204 189.541 261.717 183.027 261.717 174.992 261.717 166.957 255.204 160.443 247.169 160.443L203.469 160.443C203.004 160.422 202.538 160.422 202.073 160.443Z" fill="#4D4D4D"/><path d="M203.469 204.037C195.434 204.037 188.92 210.551 188.92 218.584 188.92 226.619 195.434 233.133 203.469 233.133L305.364 233.133C313.399 233.133 319.912 226.619 319.912 218.584 319.912 210.551 313.399 204.037 305.364 204.037Z" fill="#FFCD40"/><path d="M378.054 160.443C362.189 160.443 348.956 173.678 348.956 189.541L348.956 204.037C348.956 219.9 362.189 233.133 378.054 233.133L421.646 233.133C437.511 233.133 450.744 219.9 450.744 204.037L450.744 189.541C450.744 173.678 437.511 160.443 421.646 160.443Z" fill="#7CB342"/><path d="M508.939 160.443C493.074 160.443 479.841 173.678 479.841 189.541L479.841 204.037C479.841 219.9 493.074 233.133 508.939 233.133L538.036 233.133C553.901 233.133 567.134 219.9 567.134 204.037L567.134 189.541C567.134 173.678 553.901 160.443 538.036 160.443Z" fill="#FF1744"/><path d="M305.375 262.234C241.282 262.234 188.985 314.532 188.985 378.624 188.985 442.717 241.282 494.9 305.375 494.9 369.467 494.9 421.651 442.717 421.651 378.624 421.651 314.532 369.467 262.234 305.375 262.234ZM305.375 313.114C341.351 313.114 370.742 342.648 370.742 378.624 370.742 414.601 341.351 444.021 305.375 444.021 269.398 444.021 239.864 414.601 239.864 378.624 239.864 342.648 269.398 313.114 305.375 313.114Z" fill="#4D4D4D"/><path d="M305.375 262.234C300.421 262.234 295.566 262.65 290.772 263.257L290.772 314.904C295.486 313.813 300.346 313.114 305.375 313.114 341.351 313.114 370.742 342.647 370.742 378.624 370.742 383.613 370.05 388.437 368.981 393.112L420.656 393.112C421.251 388.357 421.651 383.537 421.651 378.624 421.651 314.531 369.468 262.234 305.375 262.234Z" fill="#FF1744"/><path d="M305.364 313.125C269.387 313.125 239.867 342.643 239.867 378.621 239.867 414.598 269.387 444.01 305.364 444.01 341.34 444.01 370.752 414.598 370.752 378.621 370.752 342.643 341.34 313.125 305.364 313.125Z" fill="#EFEBE9"/><path d="M463.843 262.23C455.808 262.654 449.637 269.51 450.059 277.543 450.481 285.568 457.321 291.736 465.346 291.328L552.531 291.328C560.566 291.328 567.08 284.814 567.08 276.779 567.08 268.746 560.566 262.23 552.531 262.23L465.346 262.23C464.845 262.205 464.344 262.205 463.843 262.23Z" fill="#4D4D4D"/><path d="M463.843 320.426C455.808 320.85 449.637 327.703 450.059 335.738 450.481 343.762 457.321 349.932 465.346 349.523L494.443 349.523C502.479 349.523 508.992 343.01 508.992 334.975 508.992 326.941 502.479 320.426 494.443 320.426L465.346 320.426C464.845 320.4 464.344 320.4 463.843 320.426Z" fill="#4D4D4D"/><path d="M276.266 582.195 276.266 538.604C276.266 522.74 263.033 509.506 247.169 509.506L218.071 509.506C202.206 509.506 188.974 522.74 188.974 538.604L188.974 582.195Z" fill="#FFCD40"/><path d="M247.183 509.514C263.048 509.514 276.273 522.74 276.273 538.604L247.183 538.604C231.318 538.604 218.064 551.83 218.064 567.693L218.064 582.195 188.974 582.195 188.974 538.604C188.974 522.74 202.228 509.514 218.093 509.514Z" fill="#F8A92D"/><path d="M450.744 582.195 450.744 524.002C450.716 516.008 444.243 509.535 436.249 509.506L392.549 509.506C376.684 509.506 363.451 522.74 363.451 538.604L363.451 582.195Z" fill="#FF1744"/><path d="M392.542 509.514C376.677 509.514 363.451 522.74 363.451 538.604L390.182 538.604C398.218 538.633 404.73 545.17 404.699 553.207L404.699 596.812 450.751 596.812 450.751 524.115C450.78 516.08 444.269 509.541 436.234 509.514Z" fill="#E5173A"/><path d="M508.939 582.195 508.939 509.506C508.969 501.471 502.479 494.932 494.444 494.904L450.744 494.904C434.879 494.904 421.646 508.137 421.646 524.002L421.646 582.195Z" fill="#FFCD40"/><path d="M450.729 494.957C434.865 494.957 421.639 508.184 421.639 524.049L448.37 524.049C456.406 524.076 462.918 530.615 462.887 538.65L462.887 582.256 508.938 582.256 508.938 509.561C508.968 501.523 502.457 494.986 494.422 494.957Z" fill="#F8A92D"/><path d="M567.134 582.195 567.134 465.914C567.134 450.049 553.9 436.816 538.036 436.816L508.939 436.816C493.074 436.816 479.841 450.049 479.841 465.914L479.841 582.195Z" fill="#039BE5"/><path d="M463.843 378.621C455.808 379.043 449.637 385.898 450.059 393.934 450.481 401.957 457.321 408.127 465.346 407.719L538.036 407.719C546.071 407.719 552.585 401.205 552.585 393.17 552.585 385.135 546.071 378.621 538.036 378.621L465.346 378.621C464.845 378.596 464.344 378.596 463.843 378.621Z" fill="#4D4D4D"/><path d="M508.946 436.816C493.081 436.816 479.855 450.043 479.855 465.906L508.946 465.906C524.81 465.906 538.065 479.133 538.065 494.996L538.065 582.184 567.155 582.184 567.155 465.906C567.155 450.043 553.9 436.816 538.036 436.816Z" fill="#1E7AA6"/><path d="M196.275 567.701C188.24 568.09 182.042 574.918 182.431 582.955 182.82 590.984 189.64 597.182 197.671 596.799L561.336 596.799C569.371 596.799 575.884 590.285 575.884 582.25 575.884 574.215 569.371 567.701 561.336 567.701L197.671 567.701C197.206 567.68 196.74 567.68 196.275 567.701Z" fill="#4D4D4D"/><path d="M181.024 102.248C159.691 102.248 141.447 115.873 134.207 134.777 139.746 132.654 145.683 131.342 151.934 131.342L545.989 131.342C573.574 131.342 596.243 154.01 596.243 181.596L596.243 633.859C596.243 640.113 594.928 646.045 592.806 651.586 611.71 644.348 625.333 626.104 625.333 604.77L625.333 152.504C625.333 124.92 602.664 102.25 575.079 102.25Z" fill="#B7B4B3"/><path d="M378.047 160.451C362.182 160.451 348.956 173.678 348.956 189.541L392.563 189.541C408.428 189.541 421.654 202.768 421.654 218.633L421.654 233.121C437.518 233.121 450.744 219.893 450.744 204.029L450.744 189.541C450.744 173.676 437.518 160.451 421.654 160.451Z" fill="#699938"/><path d="M508.925 160.451C493.06 160.451 479.834 173.676 479.834 189.541L508.953 189.541C524.818 189.541 538.043 202.766 538.043 218.631L538.043 233.119C538.043 233.129 538.043 233.133 538.043 233.148 553.908 233.148 567.134 219.893 567.134 204.029L567.134 189.541C567.134 173.678 553.908 160.451 538.043 160.451Z" fill="#E5173A"/></g></svg>