<svg width="4630" height="756" xmlns="http://www.w3.org/2000/svg" xmlns:xlink="http://www.w3.org/1999/xlink" overflow="hidden"><defs><clipPath id="clip0"><rect x="0" y="0" width="4630" height="756"/></clipPath></defs><g clip-path="url(#clip0)"><rect x="0" y="0" width="4630" height="756.167" fill="#FFFFFF" fill-opacity="0"/><g><g><g><path d="M80.1918 418.869 336.773 418.869 336.773 501.005 377.855 459.807 418.936 501.005 418.936 418.869 429.916 418.869 458.49 447.439C484.908 473.863 527.743 473.863 554.16 447.439L582.734 418.869 675.522 418.869C719.806 418.869 755.709 454.871 755.709 499.283L755.709 675.295C755.709 719.707 719.806 755.709 675.522 755.709L80.1918 755.709C35.9032 755.709 0 719.707 0 675.295L0 499.283C0 454.871 35.9032 418.869 80.1918 418.869Z" fill="#282E38" fill-rule="evenodd" transform="matrix(1 0 0 1.00061 740.291 0)"/><path d="M84.4021 0.280397 127.212 0.280397 127.212 94.1623 168.41 52.9837 209.608 94.1623 209.608 0.280397 252.419 0.280397C299.037 0.280397 336.832 38.0551 336.832 84.6522L336.832 116.699 280.004 173.497C253.584 199.906 253.584 242.722 280.004 269.13L331.375 320.478 330.197 324.28C317.38 354.561 287.382 375.807 252.419 375.807L84.4021 375.807C37.7825 375.807-0.010081 338.036-0.010081 291.437L-0.010081 84.6522C-0.010081 38.0551 37.7825 0.280397 84.4021 0.280397Z" fill="#038DE8" fill-rule="evenodd" transform="matrix(1 0 0 1.00061 740.291 0)"/><path d="M311.278 238.018C301.911 228.651 301.911 213.466 311.278 204.099L489.454 25.9213C498.82 16.5552 514.007 16.5552 523.374 25.9213L701.553 204.099C710.916 213.466 710.916 228.651 701.553 238.018L523.374 416.196C514.007 425.562 498.82 425.562 489.454 416.196Z" fill="#FD4051" fill-rule="evenodd" transform="matrix(1 0 0 1.00061 740.291 0)"/><path d="M146.889 534.349C153.717 534.349 159.666 535.215 164.738 536.937 169.811 538.668 174.039 540.978 177.419 543.869 180.799 546.766 183.281 549.815 184.863 553.038 186.441 556.258 187.234 559.402 187.234 562.485 187.234 565.496 186.166 568.207 184.031 570.63 181.896 573.059 179.192 574.266 175.915 574.266 172.961 574.266 170.733 573.542 169.225 572.096 167.718 570.651 166.191 568.481 164.648 565.601 162.681 561.508 160.424 558.399 157.865 556.269 155.306 554.14 151.149 553.078 145.388 553.078 140.063 553.078 135.825 554.204 132.678 556.458 129.531 558.716 127.955 561.345 127.955 564.35 127.955 566.215 128.466 567.832 129.488 569.193 130.511 570.557 131.986 571.768 133.914 572.823 135.841 573.876 137.825 574.714 139.859 575.328 141.894 575.95 145.472 576.902 150.589 578.196 156.59 579.604 162.131 581.189 167.21 582.964 172.292 584.732 176.653 586.911 180.288 589.497 183.928 592.077 186.784 595.387 188.865 599.413 190.943 603.444 191.982 608.311 191.982 614.012 191.982 620.883 190.199 627.073 186.639 632.594 183.074 638.117 177.911 642.423 171.143 645.497 164.38 648.578 156.389 650.119 147.17 650.119 136.123 650.119 127.001 648.022 119.803 643.825 114.64 640.77 110.448 636.701 107.223 631.596 104.001 626.503 102.39 621.485 102.39 616.546 102.39 613.462 103.464 610.821 105.612 608.605 107.76 606.391 110.477 605.286 113.764 605.286 116.491 605.286 118.784 606.147 120.641 607.86 122.498 609.585 124.031 611.999 125.238 615.106 126.59 618.486 128.02 621.264 129.524 623.448 131.028 625.621 133.118 627.407 135.793 628.786 138.465 630.174 142.062 630.866 146.578 630.866 152.779 630.866 157.752 629.467 161.504 626.663 165.253 623.867 167.129 620.441 167.129 616.397 167.129 613.198 166.143 610.586 164.166 608.561 162.189 606.542 159.534 604.963 156.195 603.828 152.86 602.688 148.27 601.452 142.431 600.114 134.476 598.249 127.797 596.059 122.391 593.54 116.986 591.021 112.648 587.519 109.377 583.033 106.104 578.548 104.466 572.986 104.466 566.351 104.466 560.03 106.188 554.416 109.63 549.512 113.068 544.602 118.001 540.847 124.429 538.252 130.854 535.649 138.342 534.349 146.889 534.349Z" fill="#FFFFFF" fill-rule="evenodd" transform="matrix(1 0 0 1.00061 740.291 0)"/><path d="M368.573 534.349C380.115 534.349 390.072 536.722 398.437 541.461 406.803 546.208 413.127 552.927 417.4 561.625 421.676 570.325 423.814 580.477 423.814 592.083 423.814 600.643 422.644 608.465 420.306 615.539 417.973 622.619 414.453 628.774 409.741 633.999 405.034 639.232 399.266 643.225 392.436 645.983 385.607 648.74 377.805 650.119 369.018 650.119 360.271 650.119 352.449 648.708 345.543 645.887 338.644 643.062 332.867 639.063 328.21 633.888 323.553 628.71 320.051 622.515 317.689 615.295 315.33 608.075 314.152 600.285 314.152 591.934 314.152 583.385 315.379 575.523 317.837 568.364 320.295 561.208 323.879 555.091 328.582 550.01 333.289 544.931 339.007 541.053 345.738 538.374 352.475 535.687 360.082 534.349 368.573 534.349ZM368.573 554.896C364.407 554.896 360.559 555.679 357.036 557.247 353.511 558.812 350.474 561.098 347.929 564.094 345.383 567.093 343.359 570.985 341.846 575.767 340.337 580.555 339.58 585.939 339.58 591.934L339.58 591.934 339.58 591.934C339.58 598.002 340.337 603.462 341.846 608.317 343.359 613.172 345.456 617.159 348.15 620.278 350.84 623.408 353.915 625.732 357.376 627.273 360.838 628.806 364.666 629.577 368.869 629.577 374.256 629.577 379.178 628.242 383.637 625.569 388.096 622.901 391.671 618.733 394.356 613.055 397.044 607.383 398.385 600.347 398.385 591.934L398.385 591.934 398.385 591.934C398.385 584.179 397.149 577.492 394.682 571.878 392.218 566.264 388.716 562.032 384.178 559.178 379.638 556.319 374.434 554.896 368.573 554.896Z" fill="#FFFFFF" fill-rule="evenodd" transform="matrix(1 0 0 1.00061 740.291 0)"/><path d="M497.54 534.349C506.581 534.349 514.656 536.172 521.78 539.82 528.906 543.462 534.378 547.988 538.203 553.407 542.028 558.82 543.939 563.972 543.939 568.876 543.939 571.791 542.906 574.371 540.844 576.611 538.779 578.859 536.239 579.976 533.229 579.976 529.982 579.976 527.559 579.22 525.957 577.699 524.363 576.183 522.652 573.699 520.826 570.255 518.062 565.057 514.857 561.197 511.209 558.678 507.553 556.153 503.047 554.896 497.692 554.896 489.166 554.896 482.359 558.172 477.252 564.728 472.152 571.296 469.601 580.756 469.601 593.127 469.601 601.472 470.733 608.328 473.002 613.701 475.259 619.076 478.432 623.064 482.514 625.674 486.589 628.274 491.4 629.577 496.947 629.577 502.962 629.577 508.03 628.094 512.134 625.144 516.238 622.186 519.406 617.66 521.622 611.56 522.516 608.835 523.76 606.426 525.352 604.34 526.949 602.255 529.523 601.213 533.077 601.213 536.123 601.213 538.747 602.287 540.943 604.439 543.139 606.586 544.239 609.216 544.239 612.337 544.239 615.961 543.346 619.891 541.56 624.132 539.768 628.364 536.966 632.503 533.176 636.538 529.383 640.57 524.543 643.839 518.656 646.349 512.771 648.863 505.935 650.119 498.134 650.119 492.232 650.119 486.88 649.564 482.086 648.455 477.292 647.344 472.897 645.593 468.903 643.19 464.909 640.797 461.143 637.19 457.6 632.367 454.903 629.836 452.512 626.383 450.409 622.003 448.318 617.619 446.756 612.977 445.717 608.075 444.687 603.183 444.175 597.956 444.175 592.4 444.175 583.409 445.476 575.354 448.079 568.254 450.688 561.15 454.438 555.051 459.327 549.969 464.22 544.881 469.962 541.01 476.548 538.342 483.136 535.681 490.138 534.349 497.54 534.349Z" fill="#FFFFFF" fill-rule="evenodd" transform="matrix(1 0 0 1.00061 740.291 0)"/><path d="M577.041 534.349C580.817 534.349 583.889 535.617 586.245 538.148 588.604 540.681 589.791 544.381 589.791 549.256L589.791 585.977 630.438 541.222C632.597 538.956 634.496 537.246 636.119 536.088 637.745 534.93 639.947 534.349 642.713 534.349 646.317 534.349 649.255 535.428 651.53 537.583 653.805 539.747 654.936 542.368 654.936 545.457 654.936 549.108 653.109 552.677 649.456 556.165L623.108 580.703 652.752 623.291C655.623 626.826 657.641 629.836 658.819 632.329 660.003 634.822 660.591 637.242 660.591 639.604 660.591 642.455 659.477 644.915 657.249 646.998 655.026 649.078 652.059 650.119 648.359 650.119 644.974 650.119 642.199 649.386 640.04 647.917 637.882 646.448 636.067 644.531 634.609 642.155 633.155 639.781 631.916 637.713 630.892 635.974L606.013 596.821 589.791 613.262 589.791 635.151C589.791 640.087 588.598 643.813 586.219 646.338 583.836 648.857 580.776 650.119 577.041 650.119 574.877 650.119 572.812 649.558 570.845 648.429 568.873 647.309 567.311 645.715 566.168 643.673 565.441 642.207 564.993 640.506 564.839 638.568 564.679 636.628 564.6 633.876 564.6 630.31L564.6 549.25C564.6 544.396 565.711 540.698 567.942 538.162 570.168 535.617 573.207 534.349 577.041 534.349Z" fill="#FFFFFF" fill-rule="evenodd" transform="matrix(1 0 0 1.00061 740.291 0)"/><path d="M218.026 536.385 288.169 536.385C292.388 536.385 295.588 537.374 297.778 539.352 299.965 541.338 301.062 543.889 301.062 547.022 301.062 550.196 299.959 552.75 297.76 554.684 295.564 556.616 292.365 557.584 288.169 557.584L265.68 557.584 265.68 635.165C265.68 640.11 264.522 643.833 262.21 646.349 259.892 648.866 256.878 650.119 253.172 650.119 249.437 650.119 246.406 648.86 244.08 646.338 241.754 643.816 240.59 640.093 240.59 635.165L240.59 557.584 218.026 557.584C213.861 557.584 210.708 556.616 208.568 554.69 206.431 552.756 205.362 550.202 205.362 547.022 205.362 543.744 206.476 541.149 208.705 539.241 210.932 537.336 214.039 536.385 218.026 536.385Z" fill="#FFFFFF" fill-rule="evenodd" transform="matrix(1 0 0 1.00061 740.291 0)"/></g></g></g><text fill="#FFFFFF" font-family="Calibri,Calibri_MSFontService,sans-serif" font-weight="700" font-size="952" transform="matrix(1 0 0 1.00022 1731.73 692)">Stock</text></g></svg>