<svg width="4630" height="756" xmlns="http://www.w3.org/2000/svg" xmlns:xlink="http://www.w3.org/1999/xlink" overflow="hidden"><defs><clipPath id="clip0"><rect x="0" y="0" width="4630" height="756"/></clipPath></defs><g clip-path="url(#clip0)"><rect x="0" y="0" width="4630" height="756.167" fill="#FFFFFF" fill-opacity="0"/><path d="M1 0 4629 0 4629 756.167 1 756.167Z" fill="#FFFFFF" fill-rule="evenodd" fill-opacity="0"/><text fill="#FFFFFF" font-family="Calibri,Calibri_MSFontService,sans-serif" font-weight="700" font-size="1000" transform="matrix(1 0 0 1.00022 1590.09 692)">Ticket</text><path d="M800.9 66.2724 782.915 109.048C778.984 118.542 786.006 129.037 796.339 129.138L992.243 129.138C1008.22 129.138 1012.52 107.049 997.715 101.052L862.927 46.0823C833.859 35.4886 811.403 41.6863 800.9 66.2724Z" fill="#333333" fill-rule="evenodd"/><path d="M1173.21 174.143C1165.25 174.245 1158.84 180.759 1158.81 188.674L1158.81 422.67C1158.81 430.687 1165.33 437.201 1173.37 437.201 1179.3 437.201 1184.63 433.594 1186.86 428.082L1255.1 260.929C1265.54 235.374 1253.15 205.61 1227.59 195.188L1178.91 175.247C1177.1 174.544 1175.16 174.143 1173.21 174.143Z" fill="#333333" fill-rule="evenodd"/><path d="M707.781 316.174C702.052 316.373 696.962 319.882 694.793 325.196L626.515 492.606C616.076 518.169 628.454 547.741 653.99 558.267L702.731 578.115C710.16 581.222 718.659 577.613 721.718 570.195 722.428 568.491 722.798 566.586 722.808 564.681L722.808 330.709C722.778 322.69 716.249 316.174 708.22 316.174 708.071 316.174 707.921 316.174 707.781 316.174Z" fill="#333333" fill-rule="evenodd"/><path d="M887.889 624.241C879.895 625.042 874.073 632.264 874.883 640.287 875.434 645.601 878.855 650.214 883.807 652.22L1018.73 707.581C1044.27 718.012 1073.81 705.476 1084.26 679.902L1098.75 644.299C1101.75 636.777 1098.13 628.352 1090.68 625.344 1088.94 624.64 1087.09 624.241 1085.22 624.241L889.4 624.241C888.899 624.241 888.389 624.241 887.889 624.241Z" fill="#333333" fill-rule="evenodd"/><path d="M744.104 100.129C716.499 100.129 693.808 122.748 693.808 150.369L693.808 603.012C693.808 630.533 716.499 653.251 744.104 653.251L1138.51 653.251C1166.13 653.251 1188.81 630.533 1188.81 603.012L1188.81 150.369C1188.81 122.748 1166.13 100.129 1138.51 100.129Z" fill="#EFEBE9" fill-rule="evenodd"/><path d="M810.809 584.222 810.809 536.829C810.839 528.762 817.287 522.208 825.26 522.208L868.815 522.208C884.623 522.208 897.809 535.62 897.809 551.551L897.809 584.222Z" fill="#FF1744" fill-rule="evenodd"/><path d="M868.815 522.208C884.633 522.208 897.809 535.517 897.809 551.551L871.168 551.551C863.164 551.551 856.676 558.105 856.706 566.272L856.706 584.222 810.809 584.222 810.809 536.929C810.779 528.762 817.267 522.208 825.271 522.208Z" fill="#E5173A" fill-rule="evenodd"/><path d="M765.581 158.167C757.596 158.474 751.439 165.569 751.827 173.794 752.214 182.019 758.987 188.395 766.961 188.086L810.36 188.086C818.344 188.086 824.809 181.301 824.809 173.075 824.809 164.85 818.344 158.167 810.36 158.167L766.961 158.167C766.505 158.065 766.038 158.065 765.581 158.167Z" fill="#4D4D4D" fill-rule="evenodd"/><path d="M766.358 202.159C758.328 202.159 751.808 208.738 751.808 216.712 751.808 224.686 758.328 231.166 766.358 231.166L868.258 231.166C876.288 231.166 882.808 224.686 882.808 216.712 882.808 208.738 876.288 202.159 868.258 202.159Z" fill="#FFCD40" fill-rule="evenodd"/><path d="M940.968 158.133C925.065 158.133 911.808 171.408 911.808 187.399L911.808 201.882C911.808 217.874 925.065 231.149 940.968 231.149L984.648 231.149C1000.54 231.149 1013.81 217.874 1013.81 201.882L1013.81 187.399C1013.81 171.408 1000.54 158.133 984.648 158.133Z" fill="#7CB342" fill-rule="evenodd"/><path d="M1071.81 158.133C1056 158.133 1042.81 171.408 1042.81 187.399L1042.81 201.882C1042.81 217.874 1056 231.149 1071.81 231.149L1100.81 231.149C1116.61 231.149 1129.81 217.874 1129.81 201.882L1129.81 187.399C1129.81 171.408 1116.61 158.133 1100.81 158.133Z" fill="#FF1744" fill-rule="evenodd"/><path d="M868.368 261.806C804.174 261.806 751.808 314.192 751.808 378.387 751.808 442.592 804.174 494.858 868.368 494.858 932.552 494.858 984.808 442.592 984.808 378.387 984.808 314.192 932.552 261.806 868.368 261.806ZM868.368 312.77C904.39 312.77 933.833 342.358 933.833 378.387 933.833 414.426 904.39 443.894 868.368 443.894 832.335 443.894 802.762 414.426 802.762 378.387 802.762 342.358 832.335 312.77 868.368 312.77Z" fill="#4D4D4D" fill-rule="evenodd"/><path d="M868.422 261.806C863.458 261.806 858.603 262.227 853.808 262.838L853.808 314.536C858.523 313.445 863.387 312.744 868.422 312.744 904.428 312.744 933.857 342.318 933.857 378.329 933.857 383.325 933.156 388.16 932.086 392.835L983.817 392.835C984.408 388.08 984.808 383.254 984.808 378.329 984.808 314.166 932.576 261.806 868.422 261.806Z" fill="#FF1744" fill-rule="evenodd"/><path d="M868.363 311.175C832.353 311.175 802.808 340.804 802.808 376.74 802.808 412.775 832.353 442.204 868.363 442.204 904.363 442.204 933.808 412.775 933.808 376.74 933.808 340.804 904.363 311.175 868.363 311.175Z" fill="#EFEBE9" fill-rule="evenodd"/><path d="M1026.61 260.173C1018.58 260.671 1012.41 267.446 1012.83 275.514 1013.25 283.484 1020.09 289.56 1028.11 289.161L1115.26 289.161C1123.3 289.161 1129.81 282.686 1129.81 274.717 1129.81 266.747 1123.3 260.173 1115.26 260.173L1028.11 260.173C1027.61 260.173 1027.11 260.173 1026.61 260.173Z" fill="#4D4D4D" fill-rule="evenodd"/><path d="M1026.63 318.186C1018.58 318.684 1012.41 325.457 1012.83 333.525 1013.25 341.495 1020.09 347.573 1028.13 347.174L1057.26 347.174C1065.29 347.174 1071.81 340.699 1071.81 332.729 1071.81 324.76 1065.29 318.186 1057.26 318.186L1028.13 318.186C1027.63 318.186 1027.13 318.186 1026.63 318.186Z" fill="#4D4D4D" fill-rule="evenodd"/><path d="M839.806 580.228 839.806 536.439C839.806 520.569 826.469 507.212 810.47 507.212L781.133 507.212C765.144 507.212 751.806 520.569 751.806 536.439L751.806 580.228Z" fill="#FFCD40" fill-rule="evenodd"/><path d="M810.483 507.212C826.47 507.212 839.807 520.569 839.807 536.439L810.483 536.439C794.486 536.439 781.13 549.695 781.13 565.665L781.13 580.228 751.807 580.228 751.807 536.439C751.807 520.569 765.163 507.212 781.16 507.212Z" fill="#F8A92D" fill-rule="evenodd"/><path d="M1013.81 580.228 1013.81 521.775C1013.78 513.741 1007.33 507.212 999.359 507.212L955.809 507.212C940.003 507.212 926.809 520.569 926.809 536.439L926.809 580.228Z" fill="#FF1744" fill-rule="evenodd"/><path d="M955.798 507.205C939.993 507.205 926.809 520.613 926.809 536.545L953.457 536.545C961.459 536.545 967.947 543.199 967.917 551.265L967.917 595.224 1013.81 595.224 1013.81 521.925C1013.84 513.859 1007.35 507.305 999.349 507.205Z" fill="#E5173A" fill-rule="evenodd"/><path d="M1071.81 580.243 1071.81 507.776C1071.84 499.802 1065.37 493.223 1057.37 493.223L1013.81 493.223C997.995 493.223 984.809 506.38 984.809 522.23L984.809 580.243Z" fill="#FFCD40" fill-rule="evenodd"/><path d="M1013.8 493.223C997.993 493.223 984.809 506.38 984.809 522.23L1011.45 522.23C1019.46 522.23 1025.95 528.709 1025.92 536.783L1025.92 580.243 1071.81 580.243 1071.81 507.776C1071.84 499.703 1065.35 493.223 1057.34 493.223Z" fill="#F8A92D" fill-rule="evenodd"/><path d="M1129.81 580.241 1129.81 464.237C1129.81 448.476 1116.61 435.209 1100.81 435.209L1071.81 435.209C1056 435.209 1042.81 448.476 1042.81 464.237L1042.81 580.241Z" fill="#039BE5" fill-rule="evenodd"/><path d="M1026.68 377.199C1018.6 377.697 1012.41 384.472 1012.83 392.441 1013.25 400.51 1020.12 406.586 1028.18 406.187L1101.19 406.187C1109.26 406.187 1115.81 399.712 1115.81 391.742 1115.81 383.674 1109.26 377.199 1101.19 377.199L1028.18 377.199C1027.68 377.199 1027.18 377.199 1026.68 377.199Z" fill="#4D4D4D" fill-rule="evenodd"/><path d="M1071.8 435.209C1055.98 435.209 1042.81 448.476 1042.81 464.237L1071.8 464.237C1087.6 464.237 1100.82 477.403 1100.82 493.263L1100.82 580.241 1129.81 580.241 1129.81 464.237C1129.81 448.476 1116.59 435.209 1100.79 435.209Z" fill="#1E7AA6" fill-rule="evenodd"/><path d="M759.659 566.241C751.629 566.64 745.436 573.414 745.826 581.483 746.215 589.452 753.027 595.628 761.047 595.229L1124.28 595.229C1132.3 595.229 1138.81 588.754 1138.81 580.784 1138.81 572.716 1132.3 566.241 1124.28 566.241L761.047 566.241C760.588 566.241 760.118 566.241 759.659 566.241Z" fill="#4D4D4D" fill-rule="evenodd"/><path d="M744.615 100.128C723.281 100.128 705.046 113.75 697.808 132.676 703.347 130.574 709.285 129.273 715.533 129.273L1109.48 129.273C1137.06 129.273 1159.73 151.906 1159.73 179.547L1159.73 632.524C1159.73 638.732 1158.41 644.741 1156.29 650.249 1175.18 643.039 1188.81 624.711 1188.81 603.379L1188.81 150.404C1188.81 122.763 1166.14 100.128 1138.56 100.128Z" fill="#B7B4B3" fill-rule="evenodd"/><path d="M940.957 158.133C925.055 158.133 911.808 171.408 911.808 187.399L955.507 187.399C971.4 187.399 984.658 200.674 984.658 216.566L984.658 231.149C1000.55 231.149 1013.81 217.874 1013.81 201.882L1013.81 187.399C1013.81 171.408 1000.55 158.133 984.658 158.133Z" fill="#699938" fill-rule="evenodd"/><path d="M1071.8 158.135C1055.98 158.135 1042.81 171.392 1042.81 187.362L1071.83 187.362C1087.63 187.362 1100.82 200.618 1100.82 216.488L1100.82 231.051C1100.82 231.051 1100.82 231.051 1100.82 231.151 1116.62 231.151 1129.81 217.795 1129.81 201.825L1129.81 187.362C1129.81 171.392 1116.62 158.135 1100.82 158.135Z" fill="#E5173A" fill-rule="evenodd"/></g></svg>