<svg width="4630" height="756" xmlns="http://www.w3.org/2000/svg" xmlns:xlink="http://www.w3.org/1999/xlink" overflow="hidden"><defs><clipPath id="clip0"><rect x="0" y="0" width="4630" height="756"/></clipPath></defs><g clip-path="url(#clip0)"><rect x="0" y="0" width="4630" height="756.167" fill="#FFFFFF" fill-opacity="0"/><text fill="#333333" font-family="Calibri,Calibri_MSFontService,sans-serif" font-weight="700" font-size="1000" transform="matrix(1 0 0 1.00022 1589.93 708)">Ticket</text><g><g><g><path d="M2629.56 18088.4 2611.58 18131.2C2607.65 18140.7 2614.67 18151.2 2625 18151.3L2820.85 18151.3C2836.82 18151.3 2841.12 18129.2 2826.32 18123.2L2691.57 18068.2C2662.51 18057.6 2640.06 18063.8 2629.56 18088.4Z" fill="#333333" transform="matrix(1 0 0 1.00022 -1828.36 -18023.9)"/><path d="M3001.98 18196.2C2994.03 18196.3 2987.62 18202.8 2987.59 18210.7L2987.59 18444.2C2987.59 18452.2 2994.11 18458.7 3002.14 18458.7 3008.06 18458.7 3013.39 18455.1 3015.62 18449.6L3083.8 18282.8C3094.23 18257.3 3081.85 18227.6 3056.31 18217.2L3007.67 18197.3C3005.87 18196.6 3003.93 18196.2 3001.98 18196.2Z" fill="#333333" transform="matrix(1 0 0 1.00022 -1828.36 -18023.9)"/><path d="M2536.21 18338.3C2530.48 18338.5 2525.39 18342 2523.22 18347.3L2454.93 18514.3C2444.49 18539.8 2456.87 18569.3 2482.41 18579.8L2531.16 18599.6C2538.59 18602.7 2547.09 18599.1 2550.15 18591.7 2550.86 18590 2551.23 18588.1 2551.24 18586.2L2551.24 18352.8C2551.21 18344.8 2544.68 18338.3 2536.65 18338.3 2536.5 18338.3 2536.35 18338.3 2536.21 18338.3Z" fill="#333333" transform="matrix(1 0 0 1.00022 -1828.36 -18023.9)"/><path d="M2716.48 18645.8C2708.49 18646.6 2702.67 18653.8 2703.48 18661.8 2704.03 18667.1 2707.45 18671.7 2712.4 18673.7L2847.26 18728.9C2872.79 18739.3 2902.32 18726.8 2912.76 18701.3L2927.25 18665.8C2930.25 18658.3 2926.63 18649.9 2919.18 18646.9 2917.44 18646.2 2915.59 18645.8 2913.72 18645.8L2717.99 18645.8C2717.49 18645.8 2716.98 18645.8 2716.48 18645.8Z" fill="#333333" transform="matrix(1 0 0 1.00022 -1828.36 -18023.9)"/><path d="M2572.39 18122.2C2544.81 18122.2 2522.14 18144.8 2522.14 18172.4L2522.14 18624.7C2522.14 18652.2 2544.81 18674.9 2572.39 18674.9L2966.44 18674.9C2994.03 18674.9 3016.69 18652.2 3016.69 18624.7L3016.69 18172.4C3016.69 18144.8 2994.03 18122.2 2966.44 18122.2Z" fill="#EFEBE9" transform="matrix(1 0 0 1.00022 -1828.36 -18023.9)"/><path d="M2638.53 18605.5 2638.53 18558.5C2638.56 18550.5 2645.03 18544 2653.03 18544L2696.73 18544C2712.59 18544 2725.82 18557.3 2725.82 18573.1L2725.82 18605.5Z" fill="#FF1744" transform="matrix(1 0 0 1.00022 -1828.36 -18023.9)"/><path d="M2696.75 18544C2712.62 18544 2725.84 18557.2 2725.84 18573.1L2699.11 18573.1C2691.08 18573.1 2684.57 18579.6 2684.6 18587.7L2684.6 18605.5 2638.55 18605.5 2638.55 18558.6C2638.52 18550.5 2645.03 18544 2653.06 18544Z" fill="#E5173A" transform="matrix(1 0 0 1.00022 -1828.36 -18023.9)"/><path d="M2593.44 18180.4C2585.4 18180.7 2579.2 18187.6 2579.59 18195.6 2579.98 18203.6 2586.8 18209.8 2594.83 18209.5L2638.53 18209.5C2646.57 18209.5 2653.08 18202.9 2653.08 18194.9 2653.08 18186.9 2646.57 18180.4 2638.53 18180.4L2594.83 18180.4C2594.37 18180.3 2593.9 18180.3 2593.44 18180.4Z" fill="#4D4D4D" transform="matrix(1 0 0 1.00022 -1828.36 -18023.9)"/><path d="M2594.83 18223.9C2586.8 18223.9 2580.28 18230.5 2580.28 18238.5 2580.28 18246.5 2586.8 18253 2594.83 18253L2696.73 18253C2704.76 18253 2711.28 18246.5 2711.28 18238.5 2711.28 18230.5 2704.76 18223.9 2696.73 18223.9Z" fill="#FFCD40" transform="matrix(1 0 0 1.00022 -1828.36 -18023.9)"/><path d="M2769.42 18180.4C2753.55 18180.4 2740.32 18193.6 2740.32 18209.5L2740.32 18223.9C2740.32 18239.8 2753.55 18253 2769.42 18253L2813.01 18253C2828.87 18253 2842.11 18239.8 2842.11 18223.9L2842.11 18209.5C2842.11 18193.6 2828.87 18180.4 2813.01 18180.4Z" fill="#7CB342" transform="matrix(1 0 0 1.00022 -1828.36 -18023.9)"/><path d="M2900.3 18180.4C2884.44 18180.4 2871.2 18193.6 2871.2 18209.5L2871.2 18223.9C2871.2 18239.8 2884.44 18253 2900.3 18253L2929.4 18253C2945.26 18253 2958.5 18239.8 2958.5 18223.9L2958.5 18209.5C2958.5 18193.6 2945.26 18180.4 2929.4 18180.4Z" fill="#FF1744" transform="matrix(1 0 0 1.00022 -1828.36 -18023.9)"/><path d="M2696.74 2653.07C2632.64 2653.07 2580.35 2705.37 2580.35 2769.46 2580.35 2833.56 2632.64 2885.74 2696.74 2885.74 2760.83 2885.74 2813.01 2833.56 2813.01 2769.46 2813.01 2705.37 2760.83 2653.07 2696.74 2653.07ZM2696.74 2703.95C2732.71 2703.95 2762.11 2733.49 2762.11 2769.46 2762.11 2805.44 2732.71 2834.86 2696.74 2834.86 2660.76 2834.86 2631.23 2805.44 2631.23 2769.46 2631.23 2733.49 2660.76 2703.95 2696.74 2703.95Z" fill="#4D4D4D" transform="matrix(1 0 0 1.00022 -1828.36 -2391.37)"/><path d="M2696.74 2653.07C2691.78 2653.07 2686.93 2653.49 2682.14 2654.1L2682.14 2705.74C2686.85 2704.65 2691.71 2703.95 2696.74 2703.95 2732.71 2703.95 2762.11 2733.49 2762.11 2769.46 2762.11 2774.45 2761.41 2779.28 2760.34 2783.95L2812.02 2783.95C2812.61 2779.2 2813.01 2774.38 2813.01 2769.46 2813.01 2705.37 2760.83 2653.07 2696.74 2653.07Z" fill="#FF1744" transform="matrix(1 0 0 1.00022 -1828.36 -2391.37)"/><path d="M2696.73 18333C2660.75 18333 2631.23 18362.6 2631.23 18398.5 2631.23 18434.5 2660.75 18463.9 2696.73 18463.9 2732.7 18463.9 2762.12 18434.5 2762.12 18398.5 2762.12 18362.6 2732.7 18333 2696.73 18333Z" fill="#EFEBE9" transform="matrix(1 0 0 1.00022 -1828.36 -18023.9)"/><path d="M2855.21 18282.1C2847.17 18282.6 2841 18289.4 2841.42 18297.5 2841.84 18305.5 2848.68 18311.6 2856.71 18311.2L2943.89 18311.2C2951.93 18311.2 2958.44 18304.7 2958.44 18296.7 2958.44 18288.7 2951.93 18282.1 2943.89 18282.1L2856.71 18282.1C2856.21 18282.1 2855.71 18282.1 2855.21 18282.1Z" fill="#4D4D4D" transform="matrix(1 0 0 1.00022 -1828.36 -18023.9)"/><path d="M2855.21 18340.3C2847.17 18340.8 2841 18347.6 2841.42 18355.7 2841.84 18363.7 2848.68 18369.8 2856.71 18369.4L2885.81 18369.4C2893.84 18369.4 2900.35 18362.9 2900.35 18354.9 2900.35 18346.9 2893.84 18340.3 2885.81 18340.3L2856.71 18340.3C2856.21 18340.3 2855.71 18340.3 2855.21 18340.3Z" fill="#4D4D4D" transform="matrix(1 0 0 1.00022 -1828.36 -18023.9)"/><path d="M2667.63 18602.1 2667.63 18558.5C2667.63 18542.7 2654.4 18529.4 2638.53 18529.4L2609.43 18529.4C2593.57 18529.4 2580.34 18542.7 2580.34 18558.5L2580.34 18602.1Z" fill="#FFCD40" transform="matrix(1 0 0 1.00022 -1828.36 -18023.9)"/><path d="M2638.55 18529.4C2654.41 18529.4 2667.64 18542.7 2667.64 18558.5L2638.55 18558.5C2622.68 18558.5 2609.43 18571.7 2609.43 18587.6L2609.43 18602.1 2580.34 18602.1 2580.34 18558.5C2580.34 18542.7 2593.59 18529.4 2609.46 18529.4Z" fill="#F8A92D" transform="matrix(1 0 0 1.00022 -1828.36 -18023.9)"/><path d="M2842.11 18602.1 2842.11 18543.9C2842.08 18535.9 2835.61 18529.4 2827.61 18529.4L2783.91 18529.4C2768.05 18529.4 2754.81 18542.7 2754.81 18558.5L2754.81 18602.1Z" fill="#FF1744" transform="matrix(1 0 0 1.00022 -1828.36 -18023.9)"/><path d="M2783.9 18529.4C2768.04 18529.4 2754.81 18542.7 2754.81 18558.5L2781.55 18558.5C2789.58 18558.5 2796.09 18565.1 2796.06 18573.1L2796.06 18616.7 2842.11 18616.7 2842.11 18544C2842.14 18536 2835.63 18529.5 2827.6 18529.4Z" fill="#E5173A" transform="matrix(1 0 0 1.00022 -1828.36 -18023.9)"/><path d="M2900.3 18602.1 2900.3 18529.4C2900.33 18521.4 2893.84 18514.8 2885.81 18514.8L2842.11 18514.8C2826.24 18514.8 2813.01 18528 2813.01 18543.9L2813.01 18602.1Z" fill="#FFCD40" transform="matrix(1 0 0 1.00022 -1828.36 -18023.9)"/><path d="M2842.09 18514.9C2826.23 18514.9 2813 18528.1 2813 18544L2839.73 18544C2847.77 18544 2854.28 18550.5 2854.25 18558.6L2854.25 18602.2 2900.3 18602.2 2900.3 18529.5C2900.33 18521.4 2893.82 18514.9 2885.78 18514.9Z" fill="#F8A92D" transform="matrix(1 0 0 1.00022 -1828.36 -18023.9)"/><path d="M2958.5 18602.1 2958.5 18485.8C2958.5 18470 2945.26 18456.7 2929.4 18456.7L2900.3 18456.7C2884.44 18456.7 2871.2 18470 2871.2 18485.8L2871.2 18602.1Z" fill="#039BE5" transform="matrix(1 0 0 1.00022 -1828.36 -18023.9)"/><path d="M2855.21 18398.5C2847.17 18399 2841 18405.8 2841.42 18413.8 2841.84 18421.9 2848.68 18428 2856.71 18427.6L2929.4 18427.6C2937.43 18427.6 2943.95 18421.1 2943.95 18413.1 2943.95 18405 2937.43 18398.5 2929.4 18398.5L2856.71 18398.5C2856.21 18398.5 2855.71 18398.5 2855.21 18398.5Z" fill="#4D4D4D" transform="matrix(1 0 0 1.00022 -1828.36 -18023.9)"/><path d="M2900.31 18456.7C2884.44 18456.7 2871.22 18470 2871.22 18485.8L2900.31 18485.8C2916.17 18485.8 2929.43 18499 2929.43 18514.9L2929.43 18602.1 2958.52 18602.1 2958.52 18485.8C2958.52 18470 2945.26 18456.7 2929.4 18456.7Z" fill="#1E7AA6" transform="matrix(1 0 0 1.00022 -1828.36 -18023.9)"/><path d="M2587.64 18587.6C2579.6 18588 2573.4 18594.8 2573.79 18602.9 2574.18 18610.9 2581 18617.1 2589.03 18616.7L2952.7 18616.7C2960.73 18616.7 2967.25 18610.2 2967.25 18602.2 2967.25 18594.1 2960.73 18587.6 2952.7 18587.6L2589.03 18587.6C2588.57 18587.6 2588.1 18587.6 2587.64 18587.6Z" fill="#4D4D4D" transform="matrix(1 0 0 1.00022 -1828.36 -18023.9)"/><path d="M2572.39 18122.2C2551.05 18122.2 2532.81 18135.8 2525.57 18154.7 2531.11 18152.6 2537.05 18151.3 2543.3 18151.3L2937.35 18151.3C2964.94 18151.3 2987.61 18173.9 2987.61 18201.5L2987.61 18653.8C2987.61 18660 2986.29 18666 2984.17 18671.5 3003.07 18664.3 3016.7 18646 3016.7 18624.7L3016.7 18172.4C3016.7 18144.8 2994.03 18122.2 2966.44 18122.2Z" fill="#B7B4B3" transform="matrix(1 0 0 1.00022 -1828.36 -18023.9)"/><path d="M2769.41 18180.4C2753.54 18180.4 2740.32 18193.6 2740.32 18209.5L2783.93 18209.5C2799.79 18209.5 2813.02 18222.7 2813.02 18238.5L2813.02 18253C2828.88 18253 2842.11 18239.8 2842.11 18223.9L2842.11 18209.5C2842.11 18193.6 2828.88 18180.4 2813.02 18180.4Z" fill="#699938" transform="matrix(1 0 0 1.00022 -1828.36 -18023.9)"/><path d="M2900.29 18180.4C2884.42 18180.4 2871.2 18193.6 2871.2 18209.5L2900.32 18209.5C2916.18 18209.5 2929.41 18222.7 2929.41 18238.5L2929.41 18253C2929.41 18253 2929.41 18253 2929.41 18253.1 2945.27 18253.1 2958.5 18239.8 2958.5 18223.9L2958.5 18209.5C2958.5 18193.6 2945.27 18180.4 2929.41 18180.4Z" fill="#E5173A" transform="matrix(1 0 0 1.00022 -1828.36 -18023.9)"/></g></g></g></g></svg>