<svg width="378" height="378" xmlns="http://www.w3.org/2000/svg" xmlns:xlink="http://www.w3.org/1999/xlink" overflow="hidden"><defs><clipPath id="clip0"><rect x="0" y="0" width="378" height="378"/></clipPath></defs><g clip-path="url(#clip0)"><rect x="0" y="0" width="378" height="378" fill="#FFFFFF" fill-opacity="0"/><path d="M0 0 378 0 378 378 0 378Z" fill="#FFFFFF" fill-rule="evenodd"/><path d="M98.0624 72 111.28 72 111.28 101 124 88.28 136.72 101 136.72 72 149.938 72C164.331 72 176 83.6686 176 98.0624L176 161.938C176 176.332 164.331 188 149.938 188L98.0624 188C83.6686 188 72 176.332 72 161.938L72 98.0624C72 83.6686 83.6686 72 98.0624 72Z" fill="#038DE8" fill-rule="evenodd"/><path d="M186.131 243.566C187.945 243.566 189.555 244.006 190.96 244.888 192.365 245.77 193.449 247.078 194.212 248.812 194.976 250.546 195.358 252.612 195.358 255.008 195.358 257.606 194.942 259.78 194.111 261.532 193.28 263.286 192.174 264.574 190.794 265.398 189.413 266.224 187.89 266.636 186.223 266.636 184.922 266.636 183.737 266.398 182.666 265.924 181.595 265.448 180.643 264.73 179.81 263.764 178.977 262.8 178.327 261.568 177.859 260.068 177.392 258.568 177.158 256.882 177.158 255.008 177.158 253.156 177.392 251.492 177.859 250.014 178.327 248.536 178.955 247.334 179.742 246.408 180.53 245.482 181.469 244.776 182.56 244.292 183.651 243.808 184.841 243.566 186.131 243.566ZM139.541 237.804C138.309 237.804 137.349 238.098 136.661 238.688 135.972 239.278 135.628 240.08 135.628 241.094 135.628 242.078 135.958 242.868 136.619 243.466 137.28 244.062 138.254 244.362 139.541 244.362L146.513 244.362 146.513 268.356C146.513 269.88 146.873 271.032 147.591 271.812 148.31 272.592 149.247 272.982 150.401 272.982 151.546 272.982 152.477 272.594 153.193 271.816 153.908 271.038 154.266 269.886 154.266 268.356L154.266 244.362 161.215 244.362C162.511 244.362 163.499 244.062 164.178 243.464 164.858 242.866 165.198 242.076 165.198 241.094 165.198 240.126 164.86 239.336 164.184 238.722 163.507 238.11 162.518 237.804 161.215 237.804ZM250.698 237.218C249.514 237.218 248.576 237.61 247.888 238.396 247.2 239.18 246.856 240.322 246.856 241.822L246.856 266.862C246.856 267.964 246.88 268.814 246.93 269.414 246.978 270.012 247.116 270.538 247.34 270.99 247.694 271.622 248.176 272.114 248.784 272.46 249.392 272.808 250.03 272.982 250.698 272.982 251.852 272.982 252.796 272.592 253.532 271.814 254.266 271.034 254.634 269.882 254.634 268.358L254.634 261.596 259.644 256.518 267.326 268.612C267.642 269.15 268.024 269.788 268.474 270.522 268.924 271.256 269.484 271.848 270.15 272.302 270.818 272.756 271.674 272.982 272.72 272.982 273.862 272.982 274.778 272.66 275.464 272.018 276.152 271.374 276.496 270.614 276.496 269.734 276.496 269.004 276.314 268.256 275.95 267.486 275.586 266.716 274.962 265.786 274.076 264.694L264.922 251.538 273.058 243.958C274.186 242.88 274.75 241.778 274.75 240.65 274.75 239.696 274.4 238.886 273.698 238.218 272.996 237.552 272.088 237.218 270.976 237.218 270.122 237.218 269.442 237.398 268.94 237.756 268.438 238.114 267.852 238.642 267.186 239.342L254.634 253.168 254.634 241.824C254.634 240.318 254.268 239.174 253.54 238.392 252.812 237.61 251.864 237.218 250.698 237.218ZM226.016 237.218C223.724 237.218 221.558 237.63 219.518 238.452 217.48 239.276 215.702 240.472 214.188 242.044 212.674 243.614 211.514 245.498 210.706 247.692 209.9 249.886 209.498 252.374 209.498 255.152 209.498 256.868 209.656 258.482 209.976 259.994 210.296 261.508 210.78 262.942 211.428 264.296 212.078 265.65 212.818 266.716 213.652 267.498 214.75 268.988 215.916 270.102 217.152 270.842 218.388 271.584 219.748 272.124 221.232 272.468 222.716 272.81 224.372 272.982 226.2 272.982 228.614 272.982 230.73 272.594 232.552 271.818 234.374 271.042 235.872 270.032 237.046 268.786 238.22 267.54 239.086 266.262 239.64 264.954 240.194 263.644 240.47 262.43 240.47 261.31 240.47 260.346 240.13 259.534 239.45 258.87 238.77 258.206 237.958 257.874 237.016 257.874 235.916 257.874 235.118 258.196 234.624 258.84 234.132 259.484 233.746 260.228 233.47 261.07 232.784 262.954 231.804 264.352 230.532 265.266 229.262 266.178 227.694 266.636 225.832 266.636 224.116 266.636 222.626 266.234 221.364 265.43 220.102 264.624 219.12 263.392 218.42 261.732 217.718 260.072 217.368 257.954 217.368 255.376 217.368 251.554 218.158 248.632 219.736 246.604 221.316 244.578 223.424 243.566 226.062 243.566 227.72 243.566 229.114 243.954 230.246 244.734 231.376 245.512 232.368 246.704 233.224 248.31 233.788 249.374 234.318 250.142 234.812 250.61 235.308 251.08 236.058 251.314 237.062 251.314 237.994 251.314 238.78 250.968 239.42 250.274 240.058 249.582 240.378 248.784 240.378 247.884 240.378 246.37 239.786 244.778 238.602 243.106 237.418 241.432 235.724 240.034 233.518 238.908 231.314 237.782 228.814 237.218 226.016 237.218ZM186.131 237.218C183.503 237.218 181.148 237.632 179.064 238.462 176.981 239.29 175.211 240.488 173.754 242.056 172.298 243.626 171.189 245.516 170.429 247.726 169.668 249.938 169.288 252.366 169.288 255.008 169.288 257.588 169.653 259.994 170.383 262.224 171.113 264.454 172.198 266.368 173.639 267.968 175.08 269.566 176.868 270.802 179.004 271.674 181.14 272.546 183.562 272.982 186.269 272.982 188.988 272.982 191.403 272.556 193.517 271.704 195.63 270.852 197.416 269.618 198.873 268.002 200.33 266.388 201.42 264.486 202.142 262.3 202.866 260.114 203.228 257.698 203.228 255.054 203.228 251.468 202.566 248.332 201.242 245.644 199.92 242.958 197.963 240.882 195.374 239.416 192.784 237.952 189.703 237.218 186.131 237.218ZM117.497 237.218C114.855 237.218 112.54 237.62 110.554 238.424 108.567 239.226 107.042 240.386 105.979 241.902 104.915 243.418 104.383 245.152 104.383 247.104 104.383 249.154 104.889 250.872 105.901 252.258 106.912 253.644 108.253 254.726 109.924 255.504 111.595 256.282 113.66 256.958 116.119 257.534 117.924 257.948 119.343 258.33 120.374 258.682 121.406 259.032 122.227 259.52 122.838 260.144 123.449 260.77 123.754 261.576 123.754 262.564 123.754 263.814 123.174 264.872 122.015 265.736 120.855 266.602 119.318 267.034 117.401 267.034 116.005 267.034 114.893 266.82 114.067 266.392 113.24 265.966 112.594 265.414 112.129 264.742 111.664 264.068 111.222 263.21 110.804 262.166 110.431 261.206 109.957 260.46 109.383 259.928 108.809 259.398 108.1 259.132 107.257 259.132 106.241 259.132 105.401 259.474 104.737 260.158 104.073 260.842 103.741 261.658 103.741 262.61 103.741 264.136 104.239 265.686 105.235 267.26 106.232 268.836 107.528 270.094 109.124 271.038 111.349 272.334 114.169 272.982 117.584 272.982 120.434 272.982 122.904 272.506 124.995 271.554 127.087 270.604 128.683 269.274 129.785 267.568 130.886 265.862 131.437 263.95 131.437 261.828 131.437 260.066 131.116 258.564 130.473 257.318 129.83 256.074 128.947 255.052 127.822 254.254 126.698 253.456 125.35 252.782 123.779 252.236 122.209 251.688 120.496 251.198 118.641 250.764 117.059 250.364 115.953 250.07 115.324 249.878 114.695 249.688 114.082 249.43 113.486 249.104 112.89 248.778 112.434 248.404 112.118 247.982 111.802 247.562 111.644 247.062 111.644 246.486 111.644 245.558 112.131 244.746 113.104 244.048 114.077 243.352 115.387 243.004 117.033 243.004 118.814 243.004 120.099 243.332 120.89 243.99 121.681 244.648 122.379 245.608 122.987 246.872 123.464 247.762 123.936 248.432 124.402 248.88 124.868 249.326 125.557 249.55 126.47 249.55 127.483 249.55 128.319 249.176 128.979 248.426 129.639 247.678 129.969 246.84 129.969 245.91 129.969 244.958 129.724 243.986 129.236 242.992 128.747 241.996 127.98 241.054 126.935 240.16 125.89 239.266 124.583 238.552 123.015 238.018 121.447 237.486 119.608 237.218 117.497 237.218ZM96.8308 202 176.28 202 176.28 227.36 189 214.64 201.72 227.36 201.72 202 281.17 202C294.882 202 306 213.116 306 226.828L306 281.172C306 294.884 294.882 306 281.17 306L96.8308 306C83.1172 306 72 294.884 72 281.172L72 226.828C72 213.116 83.1172 202 96.8308 202Z" fill="#282E38" fill-rule="evenodd"/><path d="M228.501 71.5001C232.11 71.5001 235.72 72.8771 238.473 75.6311L293.37 130.527C298.877 136.035 298.877 144.965 293.37 150.473L238.473 205.368C232.966 210.877 224.035 210.877 218.526 205.368L163.631 150.473C158.123 144.965 158.123 136.035 163.631 130.527L188.177 105.981 210.084 127.888 210.084 120.796 217.176 120.796 195.269 98.8885 218.526 75.6311C221.281 72.8771 224.891 71.5001 228.501 71.5001Z" stroke="#FFFFFF" stroke-width="13.3333" stroke-miterlimit="8" fill="#FD4051" fill-rule="evenodd"/></g></svg>