<svg width="756" height="756" xmlns="http://www.w3.org/2000/svg" xmlns:xlink="http://www.w3.org/1999/xlink" overflow="hidden"><g><rect x="0" y="0" width="756" height="756" fill="#FFFFFF" fill-opacity="0"/><g><g><g><path d="M290.716 184.784 279.491 211.469C277.036 217.438 281.416 223.989 287.87 224.004L410.144 224.004C420.117 224.005 422.803 210.261 413.562 206.508L329.433 172.118C311.286 165.538 297.272 169.4 290.716 184.784Z" fill="#333333"/><path d="M523.233 252.092C518.268 252.146 514.267 256.177 514.25 261.142L514.25 406.878C514.25 411.894 518.316 415.96 523.332 415.96 527.028 415.96 530.355 413.721 531.747 410.295L574.314 306.123C580.828 290.187 573.099 271.681 557.153 265.164L526.786 252.763C525.658 252.304 524.45 252.076 523.233 252.093Z" fill="#333333"/><path d="M232.432 340.78C228.855 340.896 225.679 343.101 224.321 346.411L181.686 450.652C175.172 466.589 182.9 485.025 198.847 491.544L229.281 503.945C233.92 505.853 239.227 503.639 241.135 498.999 241.583 497.91 241.814 496.744 241.817 495.565L241.817 349.83C241.802 344.813 237.724 340.761 232.708 340.775 232.616 340.775 232.524 340.777 232.432 340.78Z" fill="#333333"/><path d="M344.985 532.771C339.995 533.278 336.362 537.736 336.87 542.727 337.209 546.052 339.347 548.923 342.438 550.2L426.634 584.656C442.575 591.172 461.012 583.363 467.526 567.429L476.576 545.239C478.446 540.586 476.19 535.296 471.536 533.426 470.453 532.99 469.296 532.768 468.13 532.771L345.923 532.771C345.611 532.755 345.297 532.755 344.985 532.771Z" fill="#333333"/><path d="M255.023 205.837C237.8 205.837 223.65 219.987 223.65 237.21L223.65 519.564C223.65 536.786 237.8 550.938 255.023 550.938L501.044 550.938C518.267 550.938 532.417 536.786 532.417 519.564L532.417 237.21C532.417 219.987 518.267 205.837 501.044 205.837Z" fill="#EFEBE9"/><path d="M296.317 507.63 296.317 478.271C296.334 473.279 300.376 469.237 305.367 469.221L332.65 469.221C342.555 469.221 350.817 477.483 350.817 487.388L350.817 507.63Z" fill="#FF1744"/><path d="M332.668 469.188C342.573 469.188 350.83 477.445 350.83 487.35L334.141 487.35C329.124 487.367 325.058 491.449 325.078 496.467L325.078 507.63 296.326 507.63 296.326 478.304C296.308 473.287 300.372 469.205 305.389 469.188Z" fill="#E5173A"/><path d="M268.162 242.171C263.145 242.414 259.275 246.677 259.518 251.693 259.76 256.707 264.02 260.575 269.033 260.337L296.317 260.337C301.334 260.337 305.4 256.271 305.4 251.254 305.4 246.238 301.333 242.171 296.317 242.171L269.033 242.171C268.743 242.157 268.452 242.157 268.162 242.171Z" fill="#4D4D4D"/><path d="M269.033 269.387C264.017 269.387 259.95 273.454 259.95 278.471 259.95 283.486 264.017 287.554 269.033 287.554L332.65 287.554C337.667 287.554 341.734 283.486 341.734 278.471 341.734 273.454 337.667 269.387 332.65 269.387Z" fill="#FFCD40"/><path d="M378.034 242.171C368.129 242.171 359.867 250.433 359.867 260.337L359.867 269.387C359.867 279.292 368.129 287.554 378.034 287.554L405.25 287.554C415.155 287.554 423.417 279.292 423.417 269.387L423.417 260.337C423.417 250.433 415.155 242.171 405.25 242.171Z" fill="#7CB342"/><path d="M459.75 242.171C449.845 242.171 441.583 250.433 441.583 260.337L441.583 269.387C441.583 279.292 449.845 287.554 459.75 287.554L477.917 287.554C487.822 287.554 496.083 279.292 496.083 269.387L496.083 260.337C496.083 250.433 487.822 242.171 477.917 242.171Z" fill="#FF1744"/><path d="M332.657 305.723C292.642 305.723 259.991 338.375 259.991 378.39 259.991 418.405 292.642 450.986 332.657 450.986 372.672 450.986 405.253 418.405 405.253 378.39 405.253 338.375 372.672 305.723 332.657 305.723ZM332.657 337.489C355.119 337.489 373.469 355.928 373.469 378.39 373.469 400.851 355.119 419.219 332.657 419.219 310.196 419.219 291.757 400.851 291.757 378.39 291.757 355.928 310.196 337.489 332.657 337.489Z" fill="#4D4D4D"/><path d="M332.657 305.723C329.565 305.723 326.533 305.983 323.541 306.362L323.541 338.607C326.483 337.926 329.518 337.489 332.657 337.489 355.119 337.489 373.469 355.928 373.469 378.39 373.469 381.504 373.037 384.516 372.369 387.435L404.632 387.435C405.004 384.466 405.253 381.457 405.253 378.39 405.253 338.374 372.673 305.723 332.658 305.723Z" fill="#FF1744"/><path d="M332.65 337.495C310.189 337.495 291.759 355.925 291.759 378.388 291.759 400.849 310.189 419.212 332.65 419.212 355.112 419.212 373.475 400.849 373.475 378.388 373.475 355.925 355.112 337.495 332.65 337.495Z" fill="#EFEBE9"/><path d="M431.595 305.721C426.579 305.984 422.726 310.265 422.989 315.28 423.253 320.29 427.523 324.142 432.533 323.888L486.967 323.888C491.983 323.888 496.05 319.82 496.05 314.804 496.05 309.788 491.983 305.721 486.967 305.721L432.533 305.721C432.221 305.705 431.908 305.705 431.595 305.721Z" fill="#4D4D4D"/><path d="M431.595 342.054C426.579 342.318 422.726 346.598 422.989 351.614 423.253 356.624 427.523 360.476 432.533 360.221L450.7 360.221C455.717 360.221 459.784 356.153 459.784 351.138 459.784 346.121 455.717 342.054 450.7 342.054L432.533 342.054C432.221 342.038 431.908 342.038 431.595 342.054Z" fill="#4D4D4D"/><path d="M314.484 505.487 314.484 478.271C314.484 468.366 306.222 460.104 296.317 460.104L278.15 460.104C268.245 460.104 259.984 468.366 259.984 478.271L259.984 505.487Z" fill="#FFCD40"/><path d="M296.326 460.108C306.231 460.108 314.488 468.366 314.488 478.271L296.326 478.271C286.421 478.271 278.146 486.528 278.146 496.432L278.146 505.487 259.984 505.487 259.984 478.271C259.984 468.366 268.259 460.108 278.164 460.108Z" fill="#F8A92D"/><path d="M423.417 505.487 423.417 469.153C423.399 464.163 419.358 460.122 414.367 460.104L387.083 460.104C377.178 460.104 368.917 468.366 368.917 478.271L368.917 505.487Z" fill="#FF1744"/><path d="M387.079 460.108C377.174 460.108 368.917 468.366 368.917 478.271L385.606 478.271C390.623 478.288 394.688 482.37 394.669 487.388L394.669 514.612 423.421 514.612 423.421 469.225C423.439 464.208 419.375 460.126 414.358 460.108Z" fill="#E5173A"/><path d="M459.75 505.487 459.75 460.104C459.769 455.087 455.717 451.005 450.7 450.987L423.417 450.987C413.512 450.987 405.25 459.249 405.25 469.153L405.25 505.487Z" fill="#FFCD40"/><path d="M423.408 451.021C413.503 451.021 405.246 459.278 405.246 469.184L421.935 469.184C426.952 469.201 431.018 473.283 430.998 478.3L430.998 505.524 459.75 505.524 459.75 460.138C459.768 455.12 455.703 451.038 450.687 451.021Z" fill="#F8A92D"/><path d="M496.083 505.487 496.083 432.888C496.083 422.982 487.822 414.721 477.917 414.721L459.75 414.721C449.845 414.721 441.583 422.982 441.583 432.888L441.583 505.487Z" fill="#039BE5"/><path d="M431.595 378.388C426.579 378.651 422.726 382.931 422.989 387.947 423.253 392.957 427.523 396.809 432.533 396.554L477.917 396.554C482.933 396.554 487 392.487 487 387.471 487 382.454 482.933 378.388 477.917 378.388L432.533 378.388C432.221 378.372 431.908 378.372 431.595 378.388Z" fill="#4D4D4D"/><path d="M459.755 414.721C449.85 414.721 441.592 422.979 441.592 432.883L459.755 432.883C469.659 432.883 477.935 441.142 477.935 451.045L477.935 505.479 496.097 505.479 496.097 432.883C496.097 422.979 487.822 414.721 477.917 414.721Z" fill="#1E7AA6"/><path d="M264.542 496.438C259.526 496.681 255.656 500.943 255.899 505.961 256.141 510.974 260.4 514.843 265.413 514.604L492.464 514.604C497.48 514.604 501.547 510.537 501.547 505.521 501.547 500.505 497.48 496.438 492.464 496.438L265.413 496.438C265.123 496.424 264.832 496.424 264.542 496.438Z" fill="#4D4D4D"/><path d="M255.021 205.837C241.701 205.837 230.311 214.344 225.791 226.146 229.249 224.821 232.955 224.001 236.858 224.001L482.882 224.001C500.104 224.001 514.258 238.153 514.258 255.377L514.258 537.742C514.258 541.646 513.437 545.351 512.112 548.811 523.914 544.29 532.42 532.899 532.42 519.58L532.42 237.214C532.42 219.992 518.267 205.838 501.044 205.838Z" fill="#B7B4B3"/><path d="M378.029 242.175C368.124 242.175 359.867 250.433 359.867 260.337L387.092 260.337C396.997 260.337 405.255 268.596 405.255 278.5L405.255 287.546C415.16 287.546 423.417 279.287 423.417 269.383L423.417 260.337C423.417 250.432 415.16 242.175 405.255 242.175Z" fill="#699938"/><path d="M459.741 242.175C449.836 242.175 441.579 250.432 441.579 260.337L459.759 260.337C469.664 260.337 477.921 268.595 477.921 278.499L477.921 287.545C477.921 287.551 477.921 287.554 477.921 287.563 487.826 287.563 496.083 279.287 496.083 269.383L496.083 260.337C496.083 250.433 487.826 242.175 477.921 242.175Z" fill="#E5173A"/></g></g></g></g></svg>